# xmcd CD database file
#
# Track frame offsets:
#	150
#	17700
#	38379
#	57078
#	74775
#	93694
#	113543
#	132913
#	151590
#	168300
#	184188
#	206878
#	226243
#	248257
#	280415
#
# Disc length: 3786 seconds
#
# Revision: 0
# Processed by: cddbd v1.5.1PL0 Copyright (c) Steve Scherf et al.
# Submitted via: CDex 1.51
#
DISCID=c30ec80f
DTITLE=DeviceHigh - Endless
DYEAR=2002
DGENRE=Vocal
TTITLE0=Endless
TTITLE1=Blue Bird 〜魔法のリング〜 (Forest Mix)
TTITLE2=Like a child dreamin' (Deep Blue Mix)
TTITLE3=Endless (Off Vocal Version)
TTITLE4=SYNCHRONICITY (karaoke Ver.)
TTITLE5=Fly away (karaoke Ver.)
TTITLE6=A song for you and me (karaoke Ver.)
TTITLE7=漂流者 (karaoke Ver.)
TTITLE8=ねこねこぱんち (karaoke Ver.)
TTITLE9=恋するデバイス (karaoke Ver.)
TTITLE10=恋のセカンド・ステージ (karaoke Ver.)
TTITLE11=KAGUYA (karaoke Ver.)
TTITLE12=Like a child dreamin' (karaoke Ver.)
TTITLE13=RAIN (karaoke Ver.)
TTITLE14=CD-EXTRA Track
EXTD=YEAR: 2002
EXTT0=
EXTT1=
EXTT2=
EXTT3=
EXTT4=
EXTT5=
EXTT6=
EXTT7=
EXTT8=
EXTT9=
EXTT10=
EXTT11=
EXTT12=
EXTT13=
EXTT14=
PLAYORDER=
